<svg width="200" height="200" viewBox="0 0 200 200" fill="none" xmlns="http://www.w3.org/2000/svg">
<rect width="200" height="200" fill="#1A1A1A"/>
<path d="M67.1972 104.926L67.1981 65.1254C67.1982 45.5646 95.7091 42.8967 99.3929 62.1127L113.406 135.209C113.569 136.058 113.881 136.293 114.023 136.388C114.271 136.555 114.735 136.715 115.348 136.658C115.961 136.6 116.387 136.357 116.599 136.147C116.721 136.027 116.983 135.738 116.983 134.875V97.7621C116.983 84.4087 127.89 73.5836 141.344 73.5836H152.782C156.768 73.5836 160 76.7911 160 80.7476C160 84.7041 156.768 87.9116 152.782 87.9116H141.344C135.863 87.9116 131.419 92.3218 131.419 97.7621V134.875C131.419 154.435 102.908 157.103 99.2237 137.887L85.2115 64.7904C85.0487 63.9415 84.7355 63.7069 84.5938 63.6116C84.346 63.445 83.8811 63.2849 83.2686 63.3423C82.6561 63.3996 82.2294 63.6433 82.0174 63.853C81.8961 63.9731 81.6342 64.2618 81.6342 65.1254L81.6333 104.926C81.6332 118.279 70.7265 129.105 57.2724 129.105H47.218C43.2317 129.105 40.0001 125.897 40 121.941C40 117.984 43.2316 114.777 47.218 114.777H57.2724C62.7536 114.777 67.1971 110.366 67.1972 104.926Z" fill="#22D3EE"/>
</svg>
